<svg width="43" height="35" viewBox="0 0 43 35" fill="none" xmlns="http://www.w3.org/2000/svg">
<g id="Logo Shapes 52">
<g id="Group">
<path id="Vector" d="M28.6917 11.6084V19.8962L28.3073 20.2228L26.5456 21.7198C26.5413 21.7239 26.5377 21.7284 26.5349 21.7334L13.0765 33.1648C12.0845 34.0036 10.8142 34.5644 9.43627 34.7719C8.05834 34.9795 6.63862 34.824 5.36773 34.3261C5.35604 34.3235 5.3451 34.3189 5.33567 34.3125C5.3329 34.3099 5.3291 34.3083 5.325 34.308C4.61352 34.0258 3.96647 33.6387 3.41382 33.1648C3.20242 32.9863 3.00618 32.7953 2.82658 32.5933C2.82225 32.5892 2.81866 32.5846 2.81591 32.5796C2.80231 32.5684 2.78981 32.5563 2.77853 32.5434C1.79353 31.4246 1.31563 30.0419 1.43229 28.6482C1.54895 27.2545 2.25238 25.9432 3.41382 24.9542L15.4254 14.752C15.4282 14.7471 15.4318 14.7425 15.4362 14.7384L17.0804 13.3413L19.1197 11.6084H28.6917Z" fill="url(#paint0_linear_0_5864)"/>
<path id="Vector_2" d="M42.3529 5.8382V29.191C42.3533 29.9774 42.1657 30.7557 41.8015 31.4786C41.4372 32.2015 40.9039 32.854 40.234 33.3966C39.5641 33.9391 38.7714 34.3603 37.9041 34.6347C37.0369 34.9091 36.113 35.031 35.1886 34.9929C33.5893 34.9033 32.0758 34.3461 30.9051 33.4157C29.7344 32.4855 28.9787 31.2396 28.7664 29.8896C28.7671 29.889 28.7677 29.8883 28.7681 29.8875C28.7684 29.8867 28.7687 29.8859 28.7687 29.8851C28.7687 29.8842 28.7684 29.8834 28.7681 29.8826C28.7677 29.8818 28.7671 29.8811 28.7664 29.8805H28.7611V29.8715C28.7587 29.8532 28.7551 29.835 28.7504 29.817C28.7121 29.5536 28.6925 29.2885 28.6917 29.0232V11.6084H7.02799C5.43877 11.6073 3.89503 11.1573 2.63974 10.3291L2.6344 10.3246C2.62906 10.3246 2.62372 10.3201 2.61839 10.3155C2.61305 10.311 2.60238 10.3019 2.5917 10.2928C2.58041 10.2827 2.56788 10.2736 2.55433 10.2656C1.80398 9.76368 1.18859 9.13123 0.749404 8.41064C0.310216 7.6901 0.0573895 6.89806 0.00786309 6.0877C-0.0365028 5.30233 0.107218 4.51748 0.430327 3.7807C0.753435 3.04392 1.24921 2.37054 1.8876 1.80136C2.52599 1.23218 3.29371 0.779048 4.14427 0.469411C4.99482 0.159774 5.91048 7.82596e-05 6.8358 1.58693e-07H35.4823C36.3846 -0.000178629 37.2781 0.150715 38.1118 0.444049C38.9455 0.737383 39.703 1.16741 40.3411 1.70957C40.9791 2.25174 41.4852 2.89541 41.8304 3.60381C42.1756 4.31222 42.3531 5.07148 42.3529 5.8382Z" fill="url(#paint1_linear_0_5864)"/>
<g id="Group_2" style="mix-blend-mode:screen" opacity="0.3">
<g id="Group_3" style="mix-blend-mode:screen" opacity="0.3">
<g id="Vector_3" style="mix-blend-mode:screen" opacity="0.3">
<path d="M40.7512 5.83815V6.02414H1.60972V5.96517C1.60972 5.93705 1.60972 5.89577 1.60972 5.84405C1.60173 5.2571 1.73104 4.67464 1.99014 4.13049C2.24925 3.58634 2.63298 3.09135 3.11907 2.67426C3.60515 2.25717 4.18391 1.92629 4.82173 1.70082C5.45954 1.47535 6.14372 1.35979 6.83453 1.36085H35.481C36.8782 1.36156 38.2182 1.83349 39.2063 2.67297C40.1944 3.51244 40.75 4.65083 40.7512 5.83815Z" fill="white"/>
</g>
</g>
</g>
<g id="Group_4" style="mix-blend-mode:screen" opacity="0.2">
<g id="Vector_4" style="mix-blend-mode:screen" opacity="0.2">
<path d="M24.0097 15.5869L4.50277 32.1625C4.50277 32.1625 4.48676 32.1489 4.45473 32.1171C4.43078 32.1014 4.40926 32.0831 4.39066 32.0627C3.48245 31.2174 2.99191 30.1074 3.02073 28.9631C3.04956 27.8187 3.59554 26.7276 4.54549 25.916L16.6533 15.6323C16.6853 15.6005 16.7013 15.5869 16.7013 15.5869H24.0097Z" fill="white"/>
</g>
</g>
<g id="Group_5" style="mix-blend-mode:multiply" opacity="0.2">
<g id="Vector_5" style="mix-blend-mode:multiply" opacity="0.2">
<path d="M28.6923 11.6084V19.8962L28.308 20.2228L26.5463 21.7198V13.3413H17.0811L19.1204 11.6084H28.6923Z" fill="black"/>
</g>
</g>
<g id="Group_6" style="mix-blend-mode:screen" opacity="0.6">
<g id="Vector_6" style="mix-blend-mode:screen" opacity="0.6">
<path d="M35.4829 1.36085C35.4829 1.36085 34.901 1.37899 33.8867 1.40621C32.8724 1.42436 31.4203 1.46972 29.68 1.48787C27.9396 1.50601 25.911 1.55137 23.7382 1.55591C21.5654 1.56044 19.2432 1.57859 16.921 1.58766C14.5987 1.57859 12.2817 1.56498 10.1036 1.55591C9.01457 1.54683 7.96289 1.53776 6.96992 1.52415C6.05784 1.49157 5.15231 1.66866 4.34874 2.03675C3.66964 2.35508 3.07817 2.79273 2.61373 3.32052C2.25643 3.73418 1.9872 4.19785 1.81828 4.69047C1.71246 5.01037 1.64626 5.33875 1.62075 5.67031C1.61595 5.73836 1.61328 5.79597 1.61168 5.84405C1.60369 5.2571 1.73301 4.67464 1.99211 4.13049C2.25121 3.58634 2.63494 3.09135 3.12102 2.67426C3.60711 2.25717 4.18586 1.92629 4.82368 1.70082C5.46148 1.47535 6.14566 1.35979 6.83646 1.36085H35.4829Z" fill="white"/>
</g>
</g>
<g id="Group_7" style="mix-blend-mode:screen" opacity="0.6">
<g id="Vector_7" style="mix-blend-mode:screen" opacity="0.6">
<path d="M16.6533 15.6323C16.5572 15.723 16.3169 15.9453 15.9699 16.2719C15.4948 16.7029 14.8328 17.3289 14.0107 18.0547C13.1885 18.7805 12.2383 19.6469 11.1973 20.5406C10.1562 21.4433 9.04584 22.4005 7.93009 23.3576C7.36954 23.8294 6.80366 24.3012 6.24845 24.7684C5.69325 25.2356 5.13806 25.6893 4.62557 26.1338C4.15184 26.5526 3.77834 27.0456 3.52583 27.5854C3.29954 28.0772 3.18016 28.5998 3.17348 29.1278C3.16935 29.5761 3.24311 30.0224 3.39237 30.4524C3.51036 30.787 3.67149 31.1095 3.87283 31.4141C4.00848 31.6089 4.16012 31.7953 4.32661 31.972C4.37238 32.0184 4.41514 32.0668 4.45473 32.1172C4.43078 32.1014 4.40927 32.0831 4.39067 32.0628C3.48245 31.2174 2.99191 30.1075 3.02073 28.9631C3.04956 27.8187 3.59554 26.7276 4.54549 25.9161L16.6533 15.6323Z" fill="white"/>
</g>
</g>
<g id="Group_8" style="mix-blend-mode:screen" opacity="0.6">
<g id="Vector_8" style="mix-blend-mode:screen" opacity="0.6">
<path d="M15.4254 14.7522C15.3027 14.8792 14.2724 15.9543 12.6868 17.4422C11.8487 18.2406 10.8504 19.1569 9.76667 20.1232C9.2168 20.604 8.66693 21.1121 8.08503 21.6065C7.50314 22.101 6.91585 22.6136 6.32327 23.1216C5.7307 23.6206 5.13281 24.1196 4.54023 24.6141C4.25195 24.859 3.95834 25.0995 3.6754 25.3354C3.41194 25.5583 3.17086 25.7996 2.9547 26.0566C2.5439 26.5485 2.23016 27.0939 2.0258 27.6715C1.84423 28.1966 1.74373 28.7394 1.72684 29.2865C1.72461 29.7546 1.78189 30.2215 1.89768 30.6791C1.99913 31.0367 2.13299 31.387 2.29807 31.727C2.37281 31.8676 2.4422 31.9901 2.50092 32.099C2.55965 32.2078 2.62905 32.2986 2.6771 32.3711C2.7465 32.48 2.79989 32.5526 2.81591 32.5798C2.80231 32.5686 2.78981 32.5565 2.77853 32.5435C1.79353 31.4248 1.31563 30.042 1.43229 28.6483C1.54895 27.2547 2.25238 25.9434 3.41382 24.9543L15.4254 14.7522Z" fill="white"/>
</g>
</g>
<g id="Group_9" style="mix-blend-mode:multiply" opacity="0.3">
<g id="Vector_9" style="mix-blend-mode:multiply" opacity="0.3">
<path d="M26.5453 21.72C26.5409 21.7241 26.5374 21.7286 26.5346 21.7336L13.0762 33.165C12.0842 34.0038 10.8139 34.5646 9.43599 34.7721C8.05802 34.9797 6.63829 34.8242 5.36741 34.3263C5.35257 34.3214 5.33824 34.3153 5.32471 34.3082C5.6921 34.4229 6.07086 34.5094 6.45646 34.5667C7.44852 34.7266 8.46913 34.7065 9.45137 34.5078C10.0896 34.3723 10.7023 34.1616 11.2718 33.8818C11.5795 33.7318 11.8707 33.5587 12.142 33.3646C12.2861 33.2648 12.4036 33.165 12.5477 33.0562L12.7559 32.8792L12.9534 32.7023C13.514 32.2124 14.0799 31.6953 14.6724 31.1872C15.265 30.6791 15.8683 30.1575 16.4715 29.6403C17.0748 29.1232 17.694 28.6151 18.2919 28.1116C18.8898 27.6081 19.4984 27.1272 20.075 26.6509C21.2388 25.7119 22.3439 24.8409 23.2995 24.1106C25.2058 22.6408 26.5453 21.72 26.5453 21.72Z" fill="black"/>
</g>
</g>
<g id="Group_10" style="mix-blend-mode:multiply" opacity="0.3">
<g id="Vector_10" style="mix-blend-mode:multiply" opacity="0.3">
<path d="M28.7662 29.8816H28.7612V29.8716C28.7639 29.8743 28.7657 29.8778 28.7662 29.8816Z" fill="black"/>
</g>
</g>
<g id="Group_11" style="mix-blend-mode:multiply" opacity="0.3">
<g id="Vector_11" style="mix-blend-mode:multiply" opacity="0.3">
<path d="M42.3531 6.53711V29.1913C42.3535 29.9777 42.1658 30.756 41.8016 31.4789C41.4374 32.2018 40.9041 32.8543 40.2342 33.3969C39.5643 33.9394 38.7716 34.3607 37.9043 34.6351C37.037 34.9095 36.1132 35.0314 35.1888 34.9932C33.5895 34.9036 32.0759 34.3464 30.9053 33.4161C29.7346 32.4858 28.9789 31.2399 28.7666 29.8899C28.788 29.958 28.8253 30.0804 28.8734 30.2574C29.0019 30.6641 29.1771 31.0592 29.3965 31.4368C29.7306 32.021 30.1782 32.5532 30.7205 33.0109C31.406 33.6007 32.235 34.0559 33.1495 34.3446C33.6611 34.5069 34.1963 34.6092 34.7404 34.6485L35.1888 34.6757C35.3276 34.6757 35.4664 34.6712 35.6106 34.6666C35.906 34.6625 36.2006 34.6382 36.4914 34.5941C37.7269 34.4061 38.8723 33.9194 39.7906 33.1923C40.2703 32.8134 40.679 32.3744 41.0025 31.8904C41.3216 31.3915 41.557 30.8571 41.7018 30.3027C41.7657 30.0198 41.8049 29.7332 41.8193 29.4454L41.8299 29.214C41.8353 29.1823 41.8299 29.0689 41.8299 29.0008V28.5336C41.8246 27.9076 41.8246 27.277 41.8193 26.651C41.8299 25.3899 41.8353 24.1334 41.8406 22.8995C41.8566 21.6611 41.8726 20.4408 41.8887 19.2659C41.926 16.9071 41.9794 14.707 42.0488 12.8199C42.1075 10.9373 42.2036 9.36322 42.2517 8.26544C42.3104 7.16312 42.3531 6.53711 42.3531 6.53711Z" fill="black"/>
</g>
</g>
<g id="Group_12" style="mix-blend-mode:screen" opacity="0.6">
<g id="Vector_12" style="mix-blend-mode:screen" opacity="0.6">
<path d="M29.4551 0C29.4551 0 28.8358 0.0408277 27.7574 0.0861904C26.679 0.131553 25.1309 0.208672 23.2784 0.258572C21.4313 0.317543 19.2692 0.367442 16.9523 0.399196C15.7938 0.408268 14.598 0.435487 13.3862 0.435487C12.169 0.444559 10.9358 0.449092 9.70258 0.453629C9.08331 0.449092 8.46405 0.449097 7.85012 0.444561L6.9319 0.44002C6.63294 0.449093 6.36067 0.453633 6.07773 0.480851C4.97735 0.584532 3.92725 0.928329 3.02946 1.47883C2.1802 1.99764 1.48997 2.68215 1.01683 3.4748C0.902358 3.66197 0.804225 3.85604 0.723224 4.05544C0.636772 4.24469 0.565434 4.43868 0.509684 4.63609C0.482992 4.73588 0.450959 4.83115 0.424266 4.92641L0.376221 5.21219C0.360206 5.30746 0.338854 5.39818 0.328177 5.49344C0.3175 5.58871 0.31749 5.69304 0.31749 5.79284C0.249423 7.03125 0.672391 8.25323 1.51866 9.2631C1.76064 9.54943 2.02837 9.81938 2.31943 10.0706C2.42086 10.1567 2.50094 10.2203 2.55433 10.2656C1.80398 9.76368 1.18859 9.13123 0.749404 8.41064C0.310216 7.6901 0.0573895 6.89806 0.00786308 6.0877C-0.0365028 5.30233 0.107218 4.51748 0.430327 3.7807C0.753435 3.04392 1.24921 2.37054 1.8876 1.80136C2.52599 1.23218 3.29371 0.779048 4.14426 0.46941C4.99482 0.159773 5.91048 7.81008e-05 6.8358 0H29.4551Z" fill="white"/>
</g>
</g>
<g id="Group_13" style="mix-blend-mode:multiply" opacity="0.3">
<g id="Vector_13" style="mix-blend-mode:multiply" opacity="0.3">
<path d="M28.6919 11.6084V19.8962L28.3075 20.2228L28.2862 19.5424C28.2434 18.2223 28.2221 16.8977 28.1954 15.5777C28.1687 14.4028 28.174 13.2324 28.1634 12.0575C26.6366 12.062 25.1151 12.0484 23.5883 12.0439C21.9547 12.0257 20.3211 12.0076 18.6875 11.9758L19.1199 11.6084H28.6919Z" fill="black"/>
</g>
</g>
<g id="Group_14" style="mix-blend-mode:screen" opacity="0.4">
<g id="Vector_14" style="mix-blend-mode:screen" opacity="0.4">
<path d="M29.2257 11.1638L29.2203 11.6083C29.2097 12.9329 29.215 14.253 29.183 15.5776C29.1616 16.8976 29.1403 18.2222 29.0975 19.5423L29.0281 21.5292L28.9427 23.5116C28.8573 24.8316 28.8039 26.1562 28.6918 27.4763V11.6083H8.27734C9.98033 11.504 11.678 11.4541 13.381 11.3815C15.0839 11.3225 16.7816 11.2772 18.4846 11.2454C20.1876 11.2137 21.8852 11.1955 23.5882 11.1729C25.2912 11.1683 26.9888 11.1502 28.6918 11.1592L29.2257 11.1638Z" fill="white"/>
</g>
</g>
</g>
</g>
<defs>
<linearGradient id="paint0_linear_0_5864" x1="2.77887" y1="33.536" x2="24.0986" y2="8.95926" gradientUnits="userSpaceOnUse">
<stop stop-color="#F58033"/>
<stop offset="1" stop-color="#A53826"/>
</linearGradient>
<linearGradient id="paint1_linear_0_5864" x1="21.1765" y1="0.489996" x2="21.1765" y2="33.9847" gradientUnits="userSpaceOnUse">
<stop stop-color="#FE7601"/>
<stop offset="1" stop-color="#A10BE8"/>
</linearGradient>
</defs>
</svg>
